<?xml version="1.0" encoding="utf-8"?>
<!-- Generator: Adobe Illustrator 22.0.1, SVG Export Plug-In . SVG Version: 6.00 Build 0)  -->
<svg version="1.1" id="Capa_1" xmlns="http://www.w3.org/2000/svg" xmlns:xlink="http://www.w3.org/1999/xlink" x="0px" y="0px"
	 viewBox="0 0 112.2 112.2" style="enable-background:new 0 0 112.2 112.2;" xml:space="preserve">
<style type="text/css">
	.st0{fill:#F1F2F2;}
</style>
<g>
	<g>
		<circle cx="56.1" cy="56.1" r="56.1"/>
	</g>
	<g>
		<path class="st0" d="M76.2,46.3C60,46.3,60,62.5,60,62.6c0,0-1.1,16.2,16.2,16.2c0,0,14.5,0.8,14.5-11.2h-7.4c0,0,0.2,4.5-6.8,4.5
			c0,0-7.4,0.5-7.4-7.3h21.9C90.9,64.7,93.3,46.3,76.2,46.3z M68.9,59c0,0,0.9-6.5,7.4-6.5c6.5,0,6.4,6.5,6.4,6.5H68.9z M50.4,54.9
			c0,0,6.4-0.5,6.4-8c0-7.5-5.3-11.2-11.9-11.2h-22v42.3h22c0,0,13.4,0.4,13.4-12.5C58.3,65.4,58.9,54.9,50.4,54.9z M32.6,43.1h12.3
			c0,0,3,0,3,4.4s-1.7,5-3.7,5H32.6V43.1z M44.3,70.3H32.6V59h12.3c0,0,4.5,0,4.4,5.8C49.3,69.8,46,70.3,44.3,70.3z M67.1,38.1v5.2
			h17.4v-5.2H67.1z"/>
	</g>
</g>
</svg>
