<?xml version="1.0" encoding="utf-8"?>
<!-- Generator: Adobe Illustrator 22.0.1, SVG Export Plug-In . SVG Version: 6.00 Build 0)  -->
<svg version="1.1" id="Capa_1" xmlns="http://www.w3.org/2000/svg" xmlns:xlink="http://www.w3.org/1999/xlink" x="0px" y="0px"
	 viewBox="0 0 112.2 112.2" style="enable-background:new 0 0 112.2 112.2;" xml:space="preserve">
<g>
	<path d="M58.2,56.2c0.3-0.1,0.7-0.2,1-0.3c-0.7-1.6-1.5-3.2-2.3-4.8c-13.4,4-26.4,4.3-30.1,4.3c-0.3,0-0.6,0-0.8,0
		c0,0.2,0,0.5,0,0.7c0,7.6,2.9,14.6,7.6,19.9C34.8,74,43.1,61.1,58.2,56.2z"/>
	<path d="M61.3,61.3C44.8,67,38.6,78.3,37.7,80c5.1,3.9,11.5,6.3,18.4,6.3c4.1,0,8.1-0.8,11.6-2.3C67.3,81.1,65.5,72.1,61.3,61.3
		C61.4,61.3,61.3,61.3,61.3,61.3z"/>
	<path d="M76,33.5C70.6,28.9,63.7,26,56.1,26c-2.3,0-4.6,0.3-6.8,0.8c1.2,1.7,6.4,8.8,11.1,17.4C70.6,40.4,75.1,34.7,76,33.5z"/>
	<path d="M54.2,46.1c-4.8-8.5-10-15.7-11-17.2c-8.3,4-14.5,11.6-16.5,20.8h0.3C29.7,49.8,41.2,49.5,54.2,46.1z"/>
	<path d="M67.4,59.8c3.7,10.3,5.4,18.8,5.8,21.1c6.6-4.5,11.3-11.7,12.7-19.9c-1.1-0.4-6.1-1.7-12.4-1.7
		C71.5,59.3,69.5,59.5,67.4,59.8z"/>
	<path d="M62.9,49c0.7,1.4,1.3,2.8,1.9,4.2c0.2,0.5,0.4,1,0.6,1.4c2.3-0.3,4.7-0.4,6.9-0.4c6.9,0,12.6,1.1,13.9,1.3
		c-0.1-6.9-2.6-13.3-6.7-18.4C78.5,38.7,73.4,44.7,62.9,49z"/>
	<path d="M56.1,0C25.1,0,0,25.1,0,56.1c0,31,25.1,56.1,56.1,56.1c31,0,56.1-25.1,56.1-56.1C112.2,25.1,87.1,0,56.1,0z M56.1,91.7
		c-19.7,0-35.7-16-35.7-35.6c0-19.6,16-35.6,35.7-35.6c19.7,0,35.7,16,35.7,35.6C91.8,75.7,75.8,91.7,56.1,91.7z"/>
</g>
</svg>
